<svg width="268" height="32" viewBox="0 0 268 32" fill="none" xmlns="http://www.w3.org/2000/svg">
<g clip-path="url(#clip0_13080_595)">
<path d="M82.6744 3.61808C83.3313 2.50863 84.2745 1.59626 85.4051 0.976558C86.6086 0.312489 87.9653 -0.0238148 89.3396 0.00131148H104.141C104.14 1.42566 103.573 2.79125 102.566 3.79841C101.559 4.80558 100.193 5.37205 98.7688 5.37353H90.7774C89.5067 5.37353 88.6541 5.56858 88.2138 5.96425C87.7736 6.35992 87.5618 7.13454 87.5618 8.2937C87.543 8.90905 87.6278 9.52318 87.8126 10.1104C87.9851 10.5585 88.3164 10.9274 88.7433 11.147C89.421 11.4857 90.1495 11.7116 90.9 11.8157L99.9948 13.4207C101.584 13.6672 103.055 14.4059 104.202 15.5328C105.347 16.6474 105.917 18.4103 105.913 20.8214V22.9614C105.913 25.8927 105.17 28.1219 103.684 29.6488C102.198 31.1758 100.155 31.943 97.5539 31.9504H82.0224V26.5838H96.3168C97.1098 26.6173 97.9029 26.5174 98.6629 26.2884C98.9116 26.2 99.1372 26.057 99.3234 25.8699C99.5095 25.6828 99.6513 25.4564 99.7385 25.2073C99.9746 24.4334 100.076 23.6248 100.039 22.8165C100.069 22.0133 99.9827 21.2099 99.7831 20.4313C99.7042 20.1778 99.576 19.9424 99.4057 19.7387C99.2355 19.5349 99.0266 19.3669 98.7911 19.2443C98.0597 18.9019 97.2826 18.6673 96.4839 18.5477L87.5172 16.9595C85.9357 16.7157 84.4754 15.967 83.3543 14.8251C82.2398 13.6808 81.6825 11.8845 81.6825 9.43613V7.31845C81.6675 6.01736 82.0107 4.73723 82.6744 3.61808Z" fill="white"/>
<path d="M116.953 0H125.664L135.901 31.9714H129.938L127.441 23.8963H114.797L112.261 31.9714H106.504L116.953 0ZM125.836 18.6523L121.69 5.32763H120.576L116.402 18.6523H125.836Z" fill="white"/>
<path d="M154.536 5.37222H143.391V14.1717H156.71V19.5384H145.213H143.424V31.9993H137.851V0H159.931C159.93 0.707161 159.79 1.40723 159.518 2.06015C159.247 2.71306 158.849 3.30599 158.348 3.80499C157.847 4.30399 157.252 4.69927 156.598 4.9682C155.944 5.23712 155.243 5.37442 154.536 5.37222Z" fill="white"/>
<path d="M163.793 0H186.714V5.37222H169.288V12.9847H183.415V18.3569H172.069C171.469 18.3603 170.885 18.1751 170.397 17.8275L169.282 17.0362V26.6047H186.708V31.9714H163.793V0Z" fill="white"/>
<path d="M217.838 0H240.765V5.37222H223.338V12.9847H237.465V18.3569H226.114C225.514 18.3615 224.929 18.1762 224.442 17.8275L223.327 17.0362V26.6047H240.753V31.9714H217.838V0Z" fill="white"/>
<path d="M244.866 0H267.815V5.37222H250.361V12.9847H264.471V18.3569H253.142C252.543 18.3603 251.958 18.1751 251.47 17.8275L250.355 17.0362V26.6047H267.815V31.9714H244.866V0Z" fill="white"/>
<path d="M209.857 5.4168H206.341H205.037V31.9881H199.464V5.4168H189.271V0H215.28C215.28 0.711814 215.14 1.41665 214.867 2.07421C214.594 2.73177 214.195 3.32916 213.691 3.83223C213.188 4.33529 212.59 4.73418 211.932 5.00607C211.274 5.27796 210.569 5.41753 209.857 5.4168Z" fill="white"/>
<path d="M5.77155 31.8319H23.379C24.2755 31.8314 25.1352 31.4765 25.7698 30.8452L40.4427 16.1974C40.5689 16.0721 40.6691 15.9232 40.7374 15.7593C40.8058 15.5953 40.841 15.4195 40.841 15.2419C40.841 15.0644 40.8058 14.8886 40.7374 14.7246C40.6691 14.5606 40.5689 14.4118 40.4427 14.2865H40.4078L28.0143 26.6065L27.6309 26.954C26.5993 27.8225 25.8326 28.0102 24.1457 27.9476H12.2959C10.7749 27.933 9.32115 27.3203 8.25081 26.2429C7.18046 25.1655 6.58005 23.7104 6.58012 22.1941V9.61698C6.58012 8.47045 6.62195 5.2671 6.64983 4.2387C6.64983 3.92601 6.64983 2.77253 6.64983 2.54322L7.40961 3.27283C7.79268 3.64455 8.30402 3.85591 8.83856 3.86347C9.81442 3.86347 11.4037 3.86347 12.282 3.86347H21.5318C22.0117 3.85671 22.4844 3.74691 22.9179 3.54154C23.3513 3.33617 23.7353 3.04006 24.0436 2.6734C24.3519 2.30673 24.5772 1.87812 24.7043 1.41677C24.8314 0.955428 24.8572 0.472194 24.78 0L5.77155 0C4.24084 0 2.77282 0.606172 1.69045 1.68516C0.608072 2.76416 0 4.22759 0 5.75351V26.0784C0 27.6043 0.608072 29.0678 1.69045 30.1468C2.77282 31.2258 4.24084 31.8319 5.77155 31.8319Z" fill="#CC000F"/>
<path d="M59.1425 1.94598e-06H41.6437C41.2024 -0.000474329 40.7653 0.0864794 40.3576 0.255876C39.9498 0.425273 39.5794 0.673781 39.2676 0.987146L24.7198 15.6414C24.5944 15.7667 24.4948 15.9156 24.4269 16.0797C24.3589 16.2437 24.324 16.4196 24.324 16.5972C24.324 16.7749 24.3589 16.9508 24.4269 17.1148C24.4948 17.2788 24.5944 17.4278 24.7198 17.5531H24.7545L37.03 5.2277L37.411 4.88011C38.4432 4.01114 39.2052 3.82345 40.8747 3.88601H52.6515C54.1715 3.88786 55.6287 4.49511 56.7029 5.57437C57.7771 6.65363 58.3805 8.11665 58.3805 9.64204V22.2455C58.3805 23.3856 58.3459 26.5973 58.3182 27.6261C58.3182 27.939 58.3182 29.093 58.3182 29.3224C58.3182 29.3224 58.3182 29.3224 58.2835 29.3224L57.5354 28.5924C57.1529 28.2189 56.6419 28.0073 56.1083 28.0015C55.1454 28.0015 53.5659 27.9668 52.6861 27.9668H43.4448C42.9701 27.9762 42.503 28.0881 42.0753 28.295C41.6475 28.5019 41.2692 28.7988 40.9662 29.1656C40.6631 29.5324 40.4424 29.9604 40.319 30.4205C40.1956 30.8807 40.1725 31.362 40.2513 31.8319H59.1287C60.65 31.8319 62.1089 31.2255 63.1846 30.146C64.2603 29.0666 64.8646 27.6025 64.8646 26.0759V5.75603C64.8646 4.23184 64.2622 2.76988 63.1895 1.69081C62.1168 0.611745 60.6614 0.00368356 59.1425 1.94598e-06Z" fill="#CC000F"/>
</g>
<defs>
<clipPath id="clip0_13080_595">
<rect width="267.815" height="32" fill="white"/>
</clipPath>
</defs>
</svg>
